<?xml version="1.0" encoding="iso-8859-1"?>
<!-- Uploaded to: SVG Repo, www.svgrepo.com, Generator: SVG Repo Mixer Tools -->
<svg height="800px" width="800px" version="1.1" id="Layer_1" xmlns="http://www.w3.org/2000/svg" xmlns:xlink="http://www.w3.org/1999/xlink" 
	 viewBox="0 0 512.001 512.001" xml:space="preserve">
<polygon style="fill:#FFAD41;" points="220.249,101.887 256,48.26 291.752,101.887 "/>
<polygon style="fill:#FF9811;" points="256,101.887 256,48.26 291.752,101.887 "/>
<path style="fill:#E4F1FB;" d="M505.286,66.483c-0.711-2.002-1.531-4.093-2.506-6.394l-7.293-17.205L256,163.709L16.514,42.883
	L9.221,60.088c-0.976,2.302-1.795,4.394-2.504,6.387c-10.638,29.876-8.542,62.649,5.605,91.032
	c-12.958,57.096,18.72,115.631,74.567,135.515l165.261,59.222h7.698l2.847-1.014c12.157-4.332,160.921-57.67,162.385-58.196
	c55.88-19.896,87.559-78.431,74.601-135.527C513.825,129.127,515.923,96.356,505.286,66.483z"/>
<path style="fill:#93C7EF;" d="M505.286,66.483c-0.711-2.002-1.531-4.093-2.506-6.394l-7.293-17.205L256,163.709v89.733
	l243.679-95.935C513.825,129.127,515.923,96.356,505.286,66.483z"/>
<path style="fill:#AED5F3;" d="M6.714,66.483c0.711-2.002,1.531-4.093,2.506-6.394l7.293-17.205L256,163.709v89.733L12.32,157.506
	C-1.824,129.127-3.923,96.356,6.714,66.483z"/>
<path style="fill:#C9E3F7;" d="M318.084,328.854c14.019-12.45,23.937-28.814,28.493-47.444c6.778-27.716,0.653-56.576-16.807-79.183
	c-8.022-10.385-11.391-24.125-9.488-38.691c0.549-4.191,0.687-8.474,0.412-12.728c-2.08-32.197-27.914-58.17-60.094-60.417
	c-18.202-1.259-35.545,4.859-48.839,17.257c-13.107,12.225-20.624,29.511-20.624,47.43c0,3.558,0.291,7.124,0.864,10.597
	c2.067,12.543-1.463,25.799-9.688,36.37c-8.513,10.945-14.363,23.409-17.39,37.052c-5.225,23.564-1.116,47.975,11.575,68.738
	c4.838,7.915,10.724,14.955,17.442,20.984l-50.447,77.96l7.329,9.757c25.101,33.415,63.437,52.581,105.179,52.581
	s80.077-19.165,105.179-52.581l7.329-9.757L318.084,328.854z"/>
<path style="fill:#AED5F3;" d="M318.084,328.854c14.019-12.45,23.937-28.814,28.493-47.444c6.778-27.716,0.653-56.576-16.807-79.183
	c-8.022-10.385-11.391-24.125-9.488-38.691c0.549-4.191,0.687-8.474,0.412-12.728c-2.08-32.197-27.914-58.17-60.094-60.417
	c-1.541-0.107-3.073-0.141-4.599-0.142v142.663v236.203c41.742,0,80.077-19.165,105.179-52.581l7.329-9.757L318.084,328.854z"/>
</svg>